<?xml version="1.0" encoding="utf-8"?>
<svg id="svg" width="400px" height="85px" viewBox="0 0 400 85" xmlns="http://www.w3.org/2000/svg">
  <g id="svgg" style="" transform="matrix(0.240565, 0, 0, 0.36871, 2.110743, 15.691364)">
    <path id="path0" d="M320.844 0.220 C 310.358 1.708,291.234 7.022,277.637 12.227 C 273.738 13.719,269.661 15.242,268.576 15.611 C 265.641 16.610,251.362 23.792,245.570 27.182 C 242.785 28.812,239.641 30.642,238.583 31.248 C 233.883 33.939,224.523 40.850,215.408 48.360 C 214.229 49.332,210.479 53.001,207.074 56.514 L 200.885 62.902 199.430 61.946 C 198.629 61.421,193.949 57.924,189.030 54.176 C 184.110 50.427,179.401 46.932,178.565 46.408 C 177.730 45.884,174.464 43.609,171.308 41.351 C 158.908 32.480,140.622 21.215,131.646 16.917 C 98.359 0.977,72.625 -2.311,48.608 6.308 C 24.624 14.914,8.214 33.020,2.044 57.682 C -1.401 71.455,-0.794 89.166,3.572 102.272 C 14.516 135.117,43.751 154.715,82.514 155.190 C 104.395 155.458,119.015 152.061,139.578 141.933 C 152.505 135.566,174.155 119.134,177.673 113.020 C 179.312 110.172,178.272 110.653,167.851 117.564 C 163.031 120.760,157.366 124.287,155.262 125.401 C 153.158 126.515,149.686 128.367,147.547 129.516 C 142.728 132.106,132.150 136.654,131.791 136.291 C 131.743 136.242,134.345 134.987,137.572 133.502 C 140.800 132.017,143.445 130.627,143.450 130.414 C 143.464 129.880,146.778 126.896,149.490 124.974 C 150.722 124.102,154.397 121.259,157.656 118.656 C 160.915 116.053,165.153 112.709,167.073 111.224 C 172.378 107.121,184.516 96.381,189.100 91.734 C 189.789 91.035,190.429 90.464,190.523 90.464 C 190.783 90.464,197.230 95.190,204.557 100.752 C 208.177 103.500,211.975 106.344,212.996 107.073 C 214.017 107.801,216.903 109.852,219.409 111.630 C 221.916 113.409,226.017 116.334,228.523 118.130 C 233.711 121.849,237.182 124.219,237.437 124.219 C 237.533 124.219,240.043 125.807,243.014 127.748 C 257.478 137.196,276.525 147.012,277.459 145.500 C 277.608 145.259,278.476 145.494,280.024 146.196 C 285.950 148.884,296.257 152.251,302.332 153.483 C 306.706 154.370,325.754 154.371,330.464 153.485 C 340.385 151.618,348.735 148.316,358.054 142.578 C 360.053 141.347,362.219 140.038,362.869 139.669 C 372.789 134.033,387.439 116.674,393.273 103.641 C 401.572 85.103,402.533 62.045,395.752 44.166 C 387.184 21.576,370.225 6.569,347.122 1.133 C 343.274 0.228,325.212 -0.400,320.844 0.220 M342.616 3.200 C 363.716 6.700,381.088 19.808,388.604 37.900 C 391.246 44.260,392.104 47.285,391.408 47.794 C 390.802 48.237,390.816 48.397,391.841 52.565 C 398.000 77.624,389.923 105.144,371.106 123.209 C 365.047 129.026,357.584 134.734,357.080 133.936 C 356.864 133.594,356.572 133.640,355.703 134.152 C 348.258 138.538,346.289 139.527,343.460 140.307 C 343.089 140.409,344.000 139.860,345.485 139.088 C 353.247 135.048,365.094 126.099,370.422 120.250 C 376.195 113.913,383.323 103.409,383.966 100.291 C 384.028 99.992,384.786 97.928,385.649 95.705 C 390.115 84.212,391.449 70.073,389.163 58.481 C 388.826 56.776,388.771 56.709,387.709 56.709 C 386.642 56.709,386.591 56.645,386.174 54.782 C 382.008 36.165,367.494 19.846,350.717 14.917 C 337.577 11.056,326.780 11.037,311.224 14.846 C 309.089 15.369,306.623 15.897,305.744 16.020 C 304.865 16.142,304.030 16.438,303.888 16.677 C 303.745 16.917,302.489 17.448,301.097 17.858 C 283.589 23.012,266.632 30.062,254.660 37.166 C 250.326 39.738,249.142 40.647,249.571 41.076 C 249.817 41.322,250.651 40.961,261.603 35.864 C 265.966 33.834,270.368 31.898,271.386 31.561 C 272.403 31.224,274.047 30.590,275.038 30.152 C 276.030 29.713,276.752 29.499,276.643 29.675 C 276.264 30.288,277.068 30.372,278.498 29.868 C 281.239 28.900,280.172 29.614,277.224 30.720 C 273.630 32.067,265.992 35.774,265.992 36.170 C 265.992 36.665,266.472 36.501,270.415 34.654 C 272.530 33.663,275.097 32.532,276.118 32.139 C 277.139 31.747,280.404 30.485,283.373 29.335 C 311.019 18.624,333.795 15.047,343.291 19.925 C 343.941 20.259,345.840 20.942,347.511 21.442 C 359.294 24.973,368.227 32.688,374.095 44.402 C 382.342 60.863,380.607 80.542,369.080 101.266 C 362.935 112.313,348.841 123.458,335.111 128.128 C 324.951 131.584,312.454 131.081,299.483 126.696 C 296.936 125.835,293.713 124.745,292.321 124.274 C 289.069 123.173,276.085 116.623,271.055 113.546 C 268.920 112.239,265.958 110.437,264.473 109.540 C 259.797 106.717,254.196 102.980,248.608 98.956 C 245.637 96.816,241.689 94.012,239.834 92.724 C 237.019 90.769,230.347 85.744,221.941 79.250 C 221.013 78.533,217.633 75.963,214.430 73.539 C 211.228 71.116,208.608 68.911,208.608 68.639 C 208.608 68.368,208.453 68.242,208.263 68.359 C 207.898 68.584,201.857 63.947,201.857 63.442 C 201.857 62.956,210.803 53.903,214.042 51.110 C 221.205 44.935,238.600 32.492,241.699 31.327 C 241.984 31.220,244.794 29.662,247.944 27.865 C 256.128 23.195,264.994 18.890,266.748 18.734 C 267.539 18.663,269.735 17.989,271.628 17.235 C 273.522 16.482,275.217 15.865,275.395 15.865 C 275.574 15.865,278.455 14.883,281.797 13.683 C 307.985 4.280,328.162 0.803,342.616 3.200 M330.389 12.735 C 329.697 12.807,328.482 12.808,327.688 12.737 C 326.894 12.666,327.460 12.606,328.945 12.605 C 330.430 12.604,331.080 12.662,330.389 12.735 M324.983 13.059 C 324.660 13.143,324.053 13.146,323.633 13.066 C 323.213 12.985,323.477 12.916,324.219 12.912 C 324.962 12.908,325.306 12.974,324.983 13.059 M321.941 13.397 C 321.616 13.482,321.084 13.482,320.759 13.397 C 320.435 13.312,320.700 13.243,321.350 13.243 C 322.000 13.243,322.266 13.312,321.941 13.397 M319.156 13.840 C 318.599 13.981,317.764 14.097,317.300 14.097 C 316.547 14.097,316.565 14.070,317.468 13.840 C 318.025 13.698,318.861 13.582,319.325 13.582 C 320.078 13.582,320.059 13.610,319.156 13.840 M87.595 30.870 C 106.757 33.980,134.137 48.323,165.570 71.717 C 169.283 74.480,172.931 77.133,173.676 77.611 C 174.421 78.090,177.326 80.228,180.131 82.363 L 185.231 86.245 182.320 88.400 C 171.180 96.649,144.152 113.210,143.271 112.328 C 143.198 112.256,143.971 111.375,144.987 110.371 C 148.073 107.324,147.451 107.232,142.670 110.026 C 110.154 129.032,71.082 131.827,48.705 116.747 C 46.483 115.250,39.521 109.005,38.746 107.815 C 38.613 107.611,37.914 106.729,37.193 105.856 C 34.099 102.113,28.399 88.480,29.740 88.033 C 29.937 87.968,29.855 86.989,29.534 85.566 C 28.791 82.270,28.516 74.771,29.002 71.055 C 29.778 65.109,32.779 54.496,33.595 54.809 C 33.840 54.903,34.275 54.388,34.644 53.569 C 36.181 50.153,39.506 45.804,40.337 46.122 C 40.570 46.212,41.881 45.047,43.250 43.533 C 45.694 40.829,50.286 37.053,52.020 36.321 C 52.504 36.117,52.912 35.797,52.926 35.612 C 53.012 34.481,59.890 31.914,65.654 30.861 C 71.125 29.862,81.411 29.866,87.595 30.870 M388.081 66.751 C 387.996 67.076,387.926 66.810,387.926 66.160 C 387.926 65.511,387.996 65.245,388.081 65.570 C 388.166 65.895,388.166 66.426,388.081 66.751 " stroke="none" fill="#000000" fill-rule="evenodd"/>
  </g>
  <text style="fill: rgb(51, 51, 51); font-family: &quot;Segoe UI&quot;; font-size: 57.4px; font-weight: 700; text-transform: uppercase; white-space: pre;" transform="matrix(1.231996, 0, 0, 1.365804, -69.16304, -18.022926)" x="159.483" y="64.328">SKEWLY</text>
  <line style="stroke: rgb(0, 0, 0);" x1="112.35199687732705" y1="-0.328936710746234" x2="112.35199687732705" y2="85.324942184696"/>
  <text style="fill: rgb(51, 51, 51); font-family: Arial, sans-serif; font-size: 15.7px; white-space: pre;" x="562.315" y="114.5"> </text>
</svg>